<svg width="141" height="28" viewBox="0 0 141 28" fill="none" xmlns="http://www.w3.org/2000/svg">
<path fill-rule="evenodd" clip-rule="evenodd" d="M2.92969e-05 27.7168C7.51498 27.0701 13.4176 21.166 13.4176 14.0044C13.4176 6.84203 7.51498 0.938649 2.92969e-05 0.291992L2.92969e-05 5.68756C4.54769 6.28351 8.05087 9.78591 8.05087 14.0044C8.05087 17.2027 6.0372 19.9894 3.08138 21.4099H1.37133C0.796855 21.4099 0.304925 21.781 0.10081 22.3075C0.0672742 22.3123 0.0336803 22.3168 2.92969e-05 22.3212L2.92969e-05 22.8413C9.77559e-06 22.8445 0 22.8477 0 22.8508L0 23.3614L2.92969e-05 23.3614L2.92969e-05 27.7168Z" fill="white"/>
<path opacity="0.9" d="M22.516 10.9441C22.516 16.8217 17.7343 21.6034 11.8551 21.6034L1.17787 21.6034C0.52731 21.6034 0 22.1307 0 22.7812L0 16.2359L11.8551 16.2359C14.774 16.2359 17.1493 13.8614 17.1493 10.9433C17.1493 8.02514 14.7748 5.64913 11.8551 5.64913L0 5.64913L0 0.283203L11.8551 0.283203C17.7343 0.283203 22.516 5.06487 22.516 10.9441Z" fill="url(#paint0_linear_1_19866)"/>
<path d="M36.3588 22.026H31.5586V6.06055H40.0183C43.7254 6.06055 45.7215 8.54992 45.7215 11.542C45.7215 14.51 43.7254 16.9994 40.0183 16.9994H36.3588V22.026ZM39.4005 12.7866C40.2084 12.7866 40.85 12.3797 40.85 11.542C40.85 10.6802 40.2084 10.2733 39.4005 10.2733H36.3588V12.7866H39.4005Z" fill="white"/>
<path d="M55.8941 22.2823C51.0254 22.2823 47.2676 18.9384 47.2676 14.042C47.2676 9.14563 51.0254 5.80176 55.8941 5.80176C60.7628 5.80176 64.5206 9.14563 64.5206 14.042C64.5206 18.9384 60.7628 22.2823 55.8941 22.2823ZM55.8941 18.0308C58.1866 18.0308 59.6756 16.2633 59.6756 14.042C59.6756 11.8207 58.1866 10.0533 55.8941 10.0533C53.6016 10.0533 52.1126 11.8207 52.1126 14.042C52.1126 16.2633 53.6016 18.0308 55.8941 18.0308Z" fill="white"/>
<path d="M77.9101 22.0248H67.0947V5.80176H71.8963V17.744H77.9101V22.0248Z" fill="white"/>
<path d="M97.9963 22.0248H92.4629L91.883 20.1276H86.0839L85.504 22.0248H79.9707L85.9148 5.80176H92.0522L97.9963 22.0248ZM90.5782 15.8469L88.9835 10.6176L87.3887 15.8469H90.5782Z" fill="white"/>
<path d="M114.22 22.026H108.763L106.581 16.9994H104.849V22.026H100.057V6.06055H108.502C112.203 6.06055 114.196 8.54992 114.196 11.542C114.196 14.2946 112.606 15.7547 111.349 16.3771L114.22 22.026ZM107.767 12.7866C108.573 12.7866 109.333 12.4037 109.333 11.518C109.333 10.6563 108.573 10.2733 107.767 10.2733H104.849V12.7866H107.767Z" fill="white"/>
<path d="M123.232 22.2829H118.34V6.31738H123.232V22.2829Z" fill="white"/>
<path d="M133.931 22.7986C130.446 22.7986 128.065 21.7782 126.322 20.2235L128.899 16.5795C130.127 17.7456 131.968 18.6687 134.177 18.6687C135.109 18.6687 135.993 18.4258 135.993 17.7942C135.993 16.2394 126.862 17.8185 126.862 11.4293C126.862 8.68421 129.169 6.06055 133.661 6.06055C136.337 6.06055 138.742 6.81364 140.607 8.31981L137.957 11.7937C136.533 10.7248 134.692 10.1904 133.146 10.1904C132.164 10.1904 131.894 10.5062 131.894 10.9192C131.894 12.4497 141 11.1378 141 17.1625C141 20.7336 138.325 22.7986 133.931 22.7986Z" fill="white"/>
<defs>
<linearGradient id="paint0_linear_1_19866" x1="20.1798" y1="1.84163" x2="-2.74239" y2="17.5994" gradientUnits="userSpaceOnUse">
<stop offset="0.226493" stop-color="#02C9A8"/>
<stop offset="1" stop-color="#ABC7FF"/>
</linearGradient>
</defs>
</svg>
